<svg xmlns="http://www.w3.org/2000/svg" viewBox="0 0 344 80" role="img" aria-label="SE Field Guide Wayfinder logo">
  <defs>
    <linearGradient id="wf-frame" x1="8" y1="8" x2="72" y2="72" gradientUnits="userSpaceOnUse">
      <stop offset="0" stop-color="#36d986"/>
      <stop offset="1" stop-color="#60a5fa"/>
    </linearGradient>
    <linearGradient id="wf-route" x1="22" y1="54" x2="56" y2="22" gradientUnits="userSpaceOnUse">
      <stop offset="0" stop-color="#60a5fa"/>
      <stop offset="0.52" stop-color="#e8ecf1"/>
      <stop offset="1" stop-color="#36d986"/>
    </linearGradient>
  </defs>

  <g transform="translate(4 4)">
    <rect x="0" y="0" width="72" height="72" rx="18" fill="#111827"/>
    <rect x="1" y="1" width="70" height="70" rx="17" fill="none" stroke="url(#wf-frame)" stroke-width="2"/>
    <circle cx="36" cy="36" r="22" fill="none" stroke="#2a3548" stroke-width="2"/>
    <path d="M20 53 C29 34 42 43 54 21" fill="none" stroke="url(#wf-route)" stroke-width="4.5" stroke-linecap="round"/>
    <circle cx="20" cy="53" r="4.5" fill="#60a5fa"/>
    <circle cx="36" cy="39" r="4.5" fill="#e8ecf1"/>
    <circle cx="54" cy="21" r="4.5" fill="#36d986"/>
    <path d="M51 18 L61 14 L57 25" fill="none" stroke="#36d986" stroke-width="2.4" stroke-linecap="round" stroke-linejoin="round"/>
    <path d="M36 10 L38 17 H34 Z" fill="#36d986"/>
    <path d="M36 62 L34 55 H38 Z" fill="#60a5fa" opacity="0.75"/>
  </g>

  <g transform="translate(94 17)">
    <text x="0" y="18"
          font-family="-apple-system, BlinkMacSystemFont, 'Segoe UI', Roboto, sans-serif"
          font-size="15" font-weight="800" fill="#36d986" letter-spacing="2.2">SE FIELD</text>
    <text x="0" y="48"
          font-family="-apple-system, BlinkMacSystemFont, 'Segoe UI', Roboto, sans-serif"
          font-size="31" font-weight="800" fill="#f8fafc">Guide</text>
    <path d="M94 42 H188" stroke="#2a3548" stroke-width="3" stroke-linecap="round"/>
    <path d="M94 42 H146" stroke="#36d986" stroke-width="3" stroke-linecap="round"/>
    <path d="M153 42 H172" stroke="#60a5fa" stroke-width="3" stroke-linecap="round"/>
  </g>
</svg>
